<svg version="1.1" id="Layer_1" xmlns="http://www.w3.org/2000/svg" xmlns:xlink="http://www.w3.org/1999/xlink" x="0px" y="0px" viewBox="-150.27 -25.84 1502.68 258.41" xml:space="preserve">
  <style type="text/css">
    .cls-1 {
      fill: #003b95;
    }
  </style>
  <path class="cls-1" d="M471.52,25.03c0-10.12,8.17-18.32,18.24-18.32s18.3,8.2,18.3,18.32-8.2,18.32-18.3,18.32c-10.07.01-18.24-8.2-18.24-18.32Z"/>
  <path class="cls-1" d="M778.03,165.18c10.09,0,18.29-8.22,18.29-18.32s-8.2-18.32-18.29-18.32-18.25,8.2-18.25,18.32,8.18,18.32,18.25,18.32Z"/>
  <path class="cls-1" d="M171.66,51.58c-33.29,0-57.45,23.97-57.45,57.02s24.16,57.02,57.45,57.02,57.68-23.99,57.68-57.02-24.26-57.02-57.68-57.02ZM171.66,138.96c-15.73,0-26.67-12.51-26.67-30.36s10.94-30.34,26.67-30.34,26.9,12.49,26.9,30.34-10.84,30.36-26.9,30.36Z"/>
  <path class="cls-1" d="M436.13,111.44c-1.29-2.42-2.76-4.49-4.35-6.11l-1.01-1.08,1.06-1.01c1.54-1.62,3.09-3.53,4.6-5.74l29.37-43.67h-35.65l-22.07,34.15c-1.26,1.83-3.78,2.78-7.56,2.78h-5.03V26.17c0-12.92-8.05-14.67-16.73-14.67h-14.89l.03,152.45h31.6v-45.72h2.97c3.6,0,6.06.42,7.19,2.36l17.41,32.9c4.87,8.92,9.71,10.45,18.85,10.45h24.22l-18.04-29.82-11.97-22.68Z"/>
  <path class="cls-1" d="M589.54,51.34c-16.07,0-26.32,7.15-32.07,13.17l-1.92,1.95-.68-2.66c-1.68-6.44-7.37-10.02-15.93-10.02h-14.17v110.11s31.46,0,31.46,0v-50.75c0-4.94.65-9.27,1.96-13.19,3.49-11.88,13.24-19.29,25.42-19.29,9.8,0,13.62,5.17,13.62,18.55v47.95c0,11.42,5.28,16.73,16.71,16.73h14.86v-70.03c-.01-27.8-13.57-42.52-39.26-42.52Z"/>
  <path class="cls-1" d="M490.17,53.83h-14.88v110.09h31.39v-93.34c.01-11.29-5.37-16.75-16.51-16.75Z"/>
  <path class="cls-1" d="M294.95,51.58c-33.32,0-57.49,23.97-57.49,57.02s24.17,57.02,57.49,57.02,57.68-23.99,57.68-57.02c-.01-33.04-24.3-57.02-57.68-57.02ZM294.95,138.96c-15.73,0-26.69-12.51-26.69-30.36s10.96-30.34,26.69-30.34,26.87,12.49,26.87,30.34c-.01,18.13-10.81,30.36-26.87,30.36Z"/>
  <path class="cls-1" d="M967.68,51.58c-33.29,0-57.47,23.97-57.47,57.02s24.18,57.02,57.47,57.02,57.7-23.99,57.7-57.02c0-33.04-24.3-57.02-57.7-57.02ZM967.68,138.96c-15.73,0-26.69-12.51-26.69-30.36s10.96-30.34,26.69-30.34,26.91,12.49,26.91,30.34-10.84,30.36-26.91,30.36Z"/>
  <path class="cls-1" d="M732.89,53.55c-5.95,0-10.55,2.36-12.85,6.71l-.85,1.69-1.45-1.27c-5.08-4.4-14.16-9.58-28.9-9.58-29.35,0-49.13,22.04-49.13,54.85s20.46,55.64,49.71,55.64c9.99,0,17.89-2.3,24.16-7.06l2.43-1.83v3.06c0,14.72-9.51,22.84-26.78,22.84-8.36,0-15.99-2.05-21.09-3.89-6.65-2.02-10.56-.35-13.25,6.33l-6.03,15.17,2.19,1.17c11.06,5.84,25.39,9.35,38.37,9.35,26.72,0,57.95-13.68,57.95-52.19V53.56h-14.48ZM694.99,134.12c-17.13,0-23.25-14.99-23.25-29,0-6.19,1.54-26.34,21.57-26.34,9.97,0,23.29,2.84,23.29,27.37,0,23.13-11.76,27.97-21.61,27.97Z"/>
  <path class="cls-1" d="M87.41,85.77l-4.62-2.59,4.02-3.43c4.69-4.05,12.56-13.1,12.56-28.77,0-23.97-18.59-39.43-47.35-39.43H15.45C6.91,11.87.1,18.8,0,27.38v136h52.66c31.97,0,52.63-17.4,52.63-44.36.01-14.53-6.67-26.93-17.88-33.25ZM29.22,47.26c0-7.04,2.98-10.39,9.52-10.81h13.06c11.21,0,17.93,6.71,17.93,17.95,0,8.56-4.6,18.53-17.52,18.53h-23v-25.67h.01ZM54.77,137.69l-25.55-.03v-30.55c0-6.54,2.54-9.93,8.13-10.7h17.41c12.44,0,20.48,7.83,20.48,20.53.02,13.04-7.83,20.75-20.47,20.75Z"/>
  <path class="cls-1" d="M1165.59,51.7c-13.04,0-25.64,6.08-33.7,16.34l-2.29,2.87-1.77-3.25c-5.79-10.59-15.81-15.96-29.74-15.96s-24.35,8.13-28.9,12.97l-2.98,3.23-1.13-4.24c-1.67-6.12-7.1-9.46-15.34-9.46h-13.18v109.68h29.84v-48.42c0-4.26.54-8.44,1.6-12.82,2.86-11.71,10.72-24.29,23.93-23.04,8.16.8,12.14,7.1,12.14,19.26v65.02h30.19v-48.42c0-5.29.47-9.27,1.7-13.25,2.42-11.17,10.63-22.62,23.38-22.62,9.24,0,12.65,5.22,12.65,19.26v48.98c0,11.11,4.94,16.04,16.01,16.04h14.14v-70.03c0-27.97-12.34-42.14-36.55-42.14Z"/>
  <path class="cls-1" d="M892.88,125.8c-.09.11-13.01,13.71-29.98,13.71-15.49,0-31.11-9.48-31.11-30.7,0-18.3,12.12-31.09,29.47-31.09,5.63,0,12.05,2.03,13.04,5.44l.15.59c2.3,7.67,9.31,8.09,10.68,8.09h16.41v-14.35c0-18.94-24.08-25.79-40.27-25.79-34.64,0-59.81,24.14-59.81,57.35s24.87,57.32,59.17,57.32c29.78,0,46.96-20.82,46.96-20.82l-13-21.59-1.71,1.84Z"/>
</svg>
